{
	"asset":{
		"generator":"Khronos glTF Blender I/O v3.6.27",
		"version":"2.0"
	},
	"scene":0,
	"scenes":[
		{
			"name":"Scene",
			"nodes":[
				0
			]
		}
	],
	"nodes":[
		{
			"mesh":0,
			"name":"Star.v2"
		}
	],
	"meshes":[
		{
			"name":"Circle.002",
			"primitives":[
				{
					"attributes":{
						"POSITION":0,
						"NORMAL":1,
						"TEXCOORD_0":2
					},
					"indices":3
				}
			]
		}
	],
	"accessors":[
		{
			"bufferView":0,
			"componentType":5126,
			"count":10870,
			"max":[
				0.9027199745178223,
				0.8732611536979675,
				0.2678928077220917
			],
			"min":[
				-0.9027199745178223,
				-0.8887901902198792,
				-0.32584837079048157
			],
			"type":"VEC3"
		},
		{
			"bufferView":1,
			"componentType":5126,
			"count":10870,
			"type":"VEC3"
		},
		{
			"bufferView":2,
			"componentType":5126,
			"count":10870,
			"type":"VEC2"
		},
		{
			"bufferView":3,
			"componentType":5123,
			"count":65208,
			"type":"SCALAR"
		}
	],
	"bufferViews":[
		{
			"buffer":0,
			"byteLength":130440,
			"byteOffset":0,
			"target":34962
		},
		{
			"buffer":0,
			"byteLength":130440,
			"byteOffset":130440,
			"target":34962
		},
		{
			"buffer":0,
			"byteLength":86960,
			"byteOffset":260880,
			"target":34962
		},
		{
			"buffer":0,
			"byteLength":130416,
			"byteOffset":347840,
			"target":34963
		}
	],
	"buffers":[
		{
			"byteLength":478256,
			"uri":"data:application/octet-stream;base64,"
		}
	]
}
